<svg xmlns="http://www.w3.org/2000/svg" width="14" height="17" viewBox="0 0 14 17" fill="none">
<path d="M0.87255 16.2499H0.872323C0.822546 16.2499 0.804711 16.2289 0.804672 16.2289C0.778943 16.195 0.75 16.1374 0.75 16.0343V1.44308C0.75 1.16922 1.08315 0.75 1.64658 0.75H12.4118C12.9385 0.75 13.25 1.13647 13.25 1.44308V16.0343C13.25 16.124 13.2362 16.1779 13.2259 16.2057C13.216 16.2323 13.2074 16.2406 13.2071 16.2409C13.2064 16.2416 13.2053 16.2428 13.2007 16.2446C13.1951 16.2468 13.1835 16.25 13.1658 16.25C13.1314 16.25 13.0416 16.238 12.883 16.114L12.8824 16.1135L8.08289 12.3681C8.08281 12.3681 8.08273 12.368 8.08265 12.3679C7.77909 12.1305 7.39477 12.0254 7.03622 12.0254C6.67865 12.0254 6.2941 12.1299 5.99067 12.3669C5.99025 12.3672 5.98983 12.3675 5.98942 12.3678L1.17477 16.1133L1.17304 16.1147C1.02753 16.2286 0.919293 16.2499 0.87255 16.2499Z" fill="white" stroke="white" stroke-width="1.5"/>
</svg>